<?xml version="1.0" standalone="no"?>
<!DOCTYPE svg PUBLIC "-//W3C//DTD SVG 20010904//EN"
 "http://www.w3.org/TR/2001/REC-SVG-20010904/DTD/svg10.dtd">
<svg version="1.0" xmlns="http://www.w3.org/2000/svg"
 width="512.000000pt" height="512.000000pt" viewBox="0 0 512.000000 512.000000"
 preserveAspectRatio="xMidYMid meet">

<g transform="translate(0.000000,512.000000) scale(0.100000,-0.100000)"
fill="#000000" stroke="none">
<path d="M860 3671 c-69 -22 -88 -29 -125 -48 -137 -72 -215 -198 -215 -348 0
-106 22 -159 95 -231 54 -53 76 -67 156 -97 52 -19 162 -52 244 -73 83 -20
154 -41 159 -45 6 -5 18 -9 28 -9 30 0 98 -76 98 -109 0 -78 -52 -125 -162
-148 -62 -13 -87 -14 -163 -3 -135 18 -262 58 -334 106 -19 13 -38 21 -43 18
-5 -3 -23 -36 -39 -72 -17 -37 -38 -82 -47 -101 -11 -24 -12 -38 -5 -50 22
-35 167 -97 313 -132 81 -19 358 -16 435 5 145 39 264 127 315 231 22 44 25
64 25 161 0 98 -3 116 -25 158 -57 111 -171 173 -435 235 -204 49 -282 84
-305 141 -11 26 -11 39 0 69 16 46 36 68 85 95 35 18 56 21 170 21 114 -1 139
-4 206 -28 42 -14 94 -36 115 -47 l38 -22 18 24 c9 12 18 28 18 34 0 7 14 44
30 82 17 39 30 77 30 84 0 25 -115 73 -243 102 -96 22 -361 20 -437 -3z"/>
<path d="M2274 3676 c-258 -63 -436 -234 -515 -496 -21 -69 -18 -299 5 -375
58 -190 182 -336 354 -415 141 -66 184 -74 357 -73 162 1 222 14 340 73 80 40
195 131 195 155 0 11 -161 165 -181 173 -4 2 -33 -17 -64 -42 -146 -119 -326
-139 -493 -54 -268 136 -301 546 -59 727 78 58 159 83 271 82 51 0 106 -5 122
-12 73 -29 137 -66 167 -96 17 -18 38 -33 46 -33 17 0 191 158 191 175 0 25
-132 126 -210 161 -67 31 -75 33 -136 49 -76 18 -315 19 -390 1z"/>
<path d="M615 2220 c-4 -6 -16 -8 -28 -5 -17 5 -19 4 -7 -4 12 -8 11 -14 -9
-35 -40 -42 -18 -39 27 4 22 22 37 42 32 45 -5 3 -12 1 -15 -5z"/>
<path d="M710 2222 c0 -6 6 -12 13 -15 7 -3 -3 -18 -27 -41 -21 -20 -36 -39
-33 -43 4 -3 15 2 24 13 10 11 35 34 55 51 23 20 33 35 27 39 -6 4 -15 1 -19
-7 -7 -10 -11 -10 -24 0 -9 8 -16 9 -16 3z"/>
<path d="M890 2220 c0 -5 5 -10 11 -10 5 0 7 5 4 10 -3 6 -8 10 -11 10 -2 0
-4 -4 -4 -10z"/>
<path d="M1013 2166 c-80 -81 -71 -94 10 -15 34 32 65 59 70 59 4 0 5 5 2 10
-10 16 -17 12 -82 -54z"/>
<path d="M1255 2220 c-3 -5 -1 -10 4 -10 6 0 11 5 11 10 0 6 -2 10 -4 10 -3 0
-8 -4 -11 -10z"/>
<path d="M1631 2213 c-18 -20 -6 -29 14 -10 8 9 12 18 8 20 -5 3 -14 -2 -22
-10z"/>
<path d="M1896 2137 c-53 -52 -96 -99 -96 -106 0 -6 -7 -11 -16 -11 -8 0 -12
-5 -8 -11 4 -7 20 3 44 27 20 22 61 62 91 90 64 62 92 94 86 101 -3 2 -48 -38
-101 -90z"/>
<path d="M2120 2220 c0 -5 5 -10 11 -10 5 0 7 5 4 10 -3 6 -8 10 -11 10 -2 0
-4 -4 -4 -10z"/>
<path d="M2435 2220 c-3 -5 -1 -10 4 -10 6 0 11 5 11 10 0 6 -2 10 -4 10 -3 0
-8 -4 -11 -10z"/>
<path d="M2636 2214 c-11 -7 -17 -17 -13 -20 3 -4 14 1 23 10 21 22 15 28 -10
10z"/>
<path d="M2950 2215 c-17 -21 -5 -31 15 -12 8 9 15 18 15 21 0 11 -18 6 -30
-9z"/>
<path d="M1406 2205 c-14 -11 -16 -15 -5 -15 8 0 23 7 33 15 14 11 16 15 5 15
-8 0 -23 -7 -33 -15z"/>
<path d="M2272 2205 c-16 -19 -3 -19 22 0 14 11 16 15 5 15 -8 -1 -20 -7 -27
-15z"/>
<path d="M2800 2205 c-16 -19 -1 -19 24 0 16 12 17 15 4 15 -8 0 -21 -7 -28
-15z"/>
<path d="M1870 2200 c0 -5 5 -10 11 -10 5 0 7 5 4 10 -3 6 -8 10 -11 10 -2 0
-4 -4 -4 -10z"/>
<path d="M1311 2164 c-11 -13 -11 -18 -1 -24 10 -6 5 -16 -19 -41 -25 -25 -35
-29 -41 -19 -7 11 -12 10 -26 -4 -14 -15 -15 -19 -4 -26 11 -7 8 -14 -13 -34
-15 -14 -27 -28 -27 -31 0 -16 25 2 81 59 119 120 133 136 121 136 -7 0 -12
-4 -12 -10 0 -5 -7 -10 -15 -10 -8 0 -15 5 -15 10 0 14 -13 12 -29 -6z m29
-14 c0 -5 -4 -10 -10 -10 -5 0 -10 5 -10 10 0 6 5 10 10 10 6 0 10 -4 10 -10z
m-90 -90 c0 -5 -4 -10 -10 -10 -5 0 -10 5 -10 10 0 6 5 10 10 10 6 0 10 -4 10
-10z"/>
<path d="M1595 2170 c3 -5 8 -10 11 -10 2 0 4 5 4 10 0 6 -5 10 -11 10 -5 0
-7 -4 -4 -10z"/>
<path d="M1845 2170 c3 -5 8 -10 11 -10 2 0 4 5 4 10 0 6 -5 10 -11 10 -5 0
-7 -4 -4 -10z"/>
<path d="M2190 2169 c0 -5 5 -7 10 -4 6 3 10 8 10 11 0 2 -4 4 -10 4 -5 0 -10
-5 -10 -11z"/>
<path d="M2220 2162 c-8 -9 -23 -24 -33 -31 -16 -13 -20 -13 -27 -1 -5 8 -13
11 -17 6 -4 -5 -2 -11 5 -13 19 -7 14 -24 -15 -49 -32 -27 -39 -29 -46 -11 -2
7 -8 8 -13 3 -5 -5 -4 -11 4 -13 22 -8 13 -25 -10 -18 -16 4 -19 4 -9 -3 7 -5
10 -15 6 -21 -5 -9 -10 -9 -21 0 -8 7 -14 7 -14 1 0 -5 7 -15 14 -22 12 -9 33
6 117 89 56 56 95 101 88 101 -8 0 -21 -8 -29 -18z"/>
<path d="M2915 2170 c3 -5 8 -10 11 -10 2 0 4 5 4 10 0 6 -5 10 -11 10 -5 0
-7 -4 -4 -10z"/>
<path d="M2350 2150 c0 -5 5 -10 10 -10 6 0 10 5 10 10 0 6 -4 10 -10 10 -5 0
-10 -4 -10 -10z"/>
<path d="M2715 2130 c-3 -5 -1 -10 4 -10 6 0 11 5 11 10 0 6 -2 10 -4 10 -3 0
-8 -4 -11 -10z"/>
<path d="M2690 2100 c0 -5 -6 -10 -14 -10 -8 0 -17 -6 -19 -12 -4 -10 -8 -9
-16 2 -5 8 -13 11 -18 7 -4 -5 -1 -12 7 -17 8 -5 11 -12 7 -16 -3 -4 -13 -1
-22 6 -9 7 -15 8 -15 2 0 -6 6 -12 12 -14 8 -3 2 -14 -16 -31 -29 -27 -30 -51
-2 -28 8 7 20 10 25 6 7 -3 8 0 5 9 -3 9 -1 16 5 16 6 0 11 4 11 10 0 5 17 25
38 45 20 19 31 35 25 35 -7 0 -13 -4 -13 -10z"/>
<path d="M935 2080 c3 -5 8 -10 11 -10 2 0 4 5 4 10 0 6 -5 10 -11 10 -5 0 -7
-4 -4 -10z"/>
<path d="M1370 2079 c0 -5 5 -7 10 -4 6 3 10 8 10 11 0 2 -4 4 -10 4 -5 0 -10
-5 -10 -11z"/>
<path d="M2235 2080 c3 -5 8 -10 11 -10 2 0 4 5 4 10 0 6 -5 10 -11 10 -5 0
-7 -4 -4 -10z"/>
<path d="M2280 2082 c0 -4 -10 -13 -21 -21 -18 -11 -23 -11 -30 0 -4 8 -11 10
-16 6 -4 -5 -1 -12 7 -17 8 -5 11 -12 7 -16 -3 -4 -13 -1 -22 6 -9 7 -15 8
-15 2 0 -6 6 -12 13 -15 9 -4 9 -7 -1 -18 -11 -12 -14 -12 -22 1 -5 8 -11 12
-15 9 -3 -3 3 -13 13 -22 18 -16 21 -15 58 21 53 51 69 72 55 72 -6 0 -11 -3
-11 -8z"/>
<path d="M1336 2054 c-11 -7 -17 -17 -13 -20 3 -4 14 1 23 10 21 22 15 28 -10
10z"/>
<path d="M1735 2060 c-3 -5 -1 -10 4 -10 6 0 11 5 11 10 0 6 -2 10 -4 10 -3 0
-8 -4 -11 -10z"/>
<path d="M2735 2060 c-3 -5 -1 -10 4 -10 6 0 11 5 11 10 0 6 -2 10 -4 10 -3 0
-8 -4 -11 -10z"/>
<path d="M2767 2050 c-10 -10 -14 -20 -9 -23 7 -5 42 26 42 38 0 10 -16 3 -33
-15z"/>
<path d="M3050 2060 c0 -5 5 -10 10 -10 6 0 10 5 10 10 0 6 -4 10 -10 10 -5 0
-10 -4 -10 -10z"/>
<path d="M1185 2040 c-3 -5 -1 -10 4 -10 6 0 11 5 11 10 0 6 -2 10 -4 10 -3 0
-8 -4 -11 -10z"/>
<path d="M1575 2040 c-3 -5 -1 -10 4 -10 6 0 11 5 11 10 0 6 -2 10 -4 10 -3 0
-8 -4 -11 -10z"/>
<path d="M2575 2040 c-3 -5 -1 -10 4 -10 6 0 11 5 11 10 0 6 -2 10 -4 10 -3 0
-8 -4 -11 -10z"/>
<path d="M2985 2040 c-3 -5 -1 -10 4 -10 6 0 11 5 11 10 0 6 -2 10 -4 10 -3 0
-8 -4 -11 -10z"/>
<path d="M3030 2042 c0 -6 5 -12 10 -12 14 0 12 -28 -2 -33 -7 -2 -10 -8 -6
-12 4 -4 15 0 24 10 16 15 16 18 -5 38 -11 12 -21 16 -21 9z"/>
<path d="M850 2011 c0 -5 -8 -11 -17 -13 -12 -2 -14 -6 -7 -10 6 -4 19 1 29
12 10 12 13 20 7 20 -7 0 -12 -4 -12 -9z"/>
<path d="M1300 2009 c0 -5 5 -7 10 -4 6 3 10 8 10 11 0 2 -4 4 -10 4 -5 0 -10
-5 -10 -11z"/>
<path d="M1541 2004 c-7 -8 -11 -17 -9 -20 3 -2 13 5 23 16 10 11 14 20 9 20
-5 -1 -15 -8 -23 -16z"/>
<path d="M2690 2009 c0 -5 5 -7 10 -4 6 3 10 8 10 11 0 2 -4 4 -10 4 -5 0 -10
-5 -10 -11z"/>
<path d="M2721 2004 c-18 -21 -6 -30 14 -11 8 9 15 18 15 21 0 11 -15 5 -29
-10z"/>
<path d="M2951 2004 c-7 -8 -11 -17 -9 -20 3 -2 13 5 23 16 10 11 14 20 9 20
-5 -1 -15 -8 -23 -16z"/>
<path d="M2665 1990 c3 -5 8 -10 11 -10 2 0 4 5 4 10 0 6 -5 10 -11 10 -5 0
-7 -4 -4 -10z"/>
<path d="M614 1780 c-57 -25 -92 -73 -97 -135 -2 -28 -2 -38 0 -22 2 15 8 27
13 27 4 0 10 10 14 23 7 27 43 70 73 85 12 7 39 12 60 12 54 0 88 10 71 21
-22 14 -90 9 -134 -11z"/>
<path d="M1065 1790 c-11 -18 5 -31 26 -20 11 6 24 8 30 4 6 -3 41 -3 77 1 49
6 62 10 47 16 -29 11 -173 11 -180 -1z"/>
<path d="M1452 1792 c-9 -7 -12 -49 -10 -178 l3 -169 120 -1 c105 0 107 0 20
3 -87 3 -102 6 -117 24 -22 27 -24 97 -2 127 13 20 25 22 102 24 l87 2 -90 5
c-49 3 -96 10 -102 14 -14 9 -17 47 -7 96 l7 31 96 0 c95 0 141 10 106 24 -24
9 -198 7 -213 -2z"/>
<path d="M1793 1793 c-10 -3 -13 -48 -13 -174 0 -111 3 -168 10 -164 6 3 10
26 10 50 0 30 5 45 16 49 16 6 16 8 0 24 -12 14 -16 39 -16 105 l0 87 48 0
c26 0 65 3 87 7 31 5 35 8 20 14 -22 8 -143 10 -162 2z"/>
<path d="M2163 1793 c-7 -2 -13 -14 -13 -26 0 -16 3 -18 12 -9 7 7 42 12 83
13 38 0 79 4 89 8 18 7 18 8 -5 14 -28 8 -148 8 -166 0z"/>
<path d="M2575 1787 c-3 -7 -4 -87 -3 -177 l3 -165 120 -1 120 0 -107 3 c-103
4 -108 5 -109 26 -1 21 -1 95 0 129 1 15 14 18 89 21 l87 3 -86 2 c-59 1 -88
6 -91 15 -2 6 -2 38 0 69 l4 57 96 3 c133 4 125 22 -11 26 -82 2 -109 0 -112
-11z"/>
<path d="M2917 1794 c-11 -11 -8 -342 3 -349 12 -7 19 23 22 95 l3 55 80 1
c44 0 81 5 83 10 1 5 -36 10 -83 12 l-85 3 0 74 0 74 98 3 c56 2 97 7 97 13 0
11 -207 20 -218 9z"/>
<path d="M3234 1787 c-2 -7 -3 -87 -2 -177 l3 -165 120 -1 120 0 -105 5 -105
6 0 80 0 80 90 5 90 6 -90 4 -90 5 -3 68 -3 67 93 0 c51 0 99 4 106 9 24 15
-13 21 -119 21 -72 0 -101 -4 -105 -13z"/>
<path d="M3577 1794 c-11 -11 -8 -342 3 -349 15 -9 20 29 23 170 l2 130 58
-75 c97 -125 112 -143 125 -156 6 -7 12 -15 12 -18 0 -12 35 -46 47 -46 10 0
13 38 11 173 l-2 172 -3 -140 c-2 -77 -7 -143 -12 -148 -8 -8 -28 10 -86 83
-20 25 -42 52 -48 60 -7 8 -26 33 -42 55 -47 63 -80 96 -88 89z"/>
<path d="M4017 1782 c-54 -36 -72 -87 -44 -122 21 -27 85 -52 104 -41 15 8 13
10 -12 16 -43 9 -58 19 -74 47 -14 24 -13 29 10 62 21 32 28 35 56 30 41 -8
101 5 82 17 -24 15 -93 10 -122 -9z"/>
<path d="M910 1621 c0 -103 4 -172 10 -176 7 -4 10 55 10 169 0 111 -4 176
-10 176 -6 0 -10 -63 -10 -169z"/>
<path d="M4397 1783 c-16 -15 -6 -33 18 -33 20 0 25 -5 25 -25 0 -14 5 -25 10
-25 6 0 10 -6 10 -13 0 -7 9 -32 20 -55 11 -22 20 -50 20 -60 0 -11 7 -25 15
-32 8 -7 15 -19 15 -26 0 -8 5 -14 10 -14 6 0 10 -9 10 -19 0 -11 4 -22 9 -26
17 -10 20 10 6 40 -54 122 -71 155 -77 155 -5 0 -8 11 -8 25 0 14 -4 25 -10
25 -5 0 -10 6 -10 13 0 42 -43 90 -63 70z"/>
<path d="M765 1770 c-3 -6 1 -13 10 -16 19 -8 30 0 20 15 -8 14 -22 14 -30 1z"/>
<path d="M1270 1771 c0 -5 7 -14 15 -21 22 -18 19 -73 -5 -95 -24 -22 -155
-33 -188 -16 -25 13 -36 1 -27 -30 6 -19 8 -20 25 -4 28 25 158 18 197 -11 41
-31 44 -81 6 -111 l-28 -23 24 0 c32 0 50 27 51 77 0 35 -5 45 -32 67 l-33 26
23 15 c29 21 31 93 4 118 -21 19 -32 22 -32 8z"/>
<path d="M1976 1773 c-3 -4 6 -18 21 -31 23 -19 28 -31 27 -67 -1 -51 -13 -69
-62 -92 -27 -13 -32 -19 -21 -27 8 -6 27 -29 44 -51 36 -50 55 -69 60 -63 5 5
-45 82 -57 86 -17 7 -7 33 27 68 30 31 35 42 35 83 0 39 -5 52 -28 74 -30 29
-35 31 -46 20z"/>
<path d="M2360 1771 c0 -6 13 -18 30 -27 16 -10 34 -30 41 -46 6 -15 15 -28
20 -28 15 0 10 -79 -7 -112 -21 -40 -59 -78 -78 -78 -8 0 -18 -4 -21 -10 -3
-6 5 -10 19 -10 28 0 77 44 100 92 18 35 21 104 6 113 -5 3 -10 14 -10 23 -1
20 -25 51 -60 75 -27 19 -40 22 -40 8z"/>
<path d="M4162 1771 c2 -7 7 -12 11 -12 12 1 9 15 -3 20 -7 2 -11 -2 -8 -8z"/>
<path d="M4370 1715 c0 -14 -4 -25 -10 -25 -5 0 -10 -9 -10 -19 0 -11 -4 -23
-10 -26 -9 -5 -25 -38 -52 -105 -6 -14 -17 -37 -24 -52 -9 -16 -11 -29 -5 -33
6 -3 19 15 31 40 23 50 30 53 130 58 l65 3 -77 2 c-45 1 -78 6 -78 12 0 10 32
87 51 122 12 23 12 48 -1 48 -5 0 -10 -11 -10 -25z"/>
<path d="M4100 1613 c-10 -4 -4 -10 20 -18 18 -6 42 -23 53 -37 16 -22 17 -29
6 -49 -7 -13 -19 -29 -28 -36 -14 -11 -14 -12 2 -13 25 0 56 39 56 70 0 28
-13 48 -49 73 -26 18 -35 19 -60 10z"/>
<path d="M520 1560 c0 -24 63 -96 90 -103 29 -7 36 11 8 22 -29 11 -64 49 -73
79 -8 27 -25 29 -25 2z"/>
<path d="M775 1481 c-25 -13 -27 -16 -11 -19 10 -2 25 3 34 12 22 22 12 25
-23 7z"/>
<path d="M3960 1491 c0 -16 29 -33 47 -28 16 4 15 6 -4 12 -13 4 -23 11 -23
16 0 5 -4 9 -10 9 -5 0 -10 -4 -10 -9z"/>
<path d="M2150 1483 c0 -39 11 -43 99 -41 l86 2 -70 3 c-54 3 -75 9 -92 25
-13 12 -23 17 -23 11z"/>
<path d="M1067 1474 c-3 -3 -3 -12 0 -20 4 -11 27 -14 102 -12 l96 2 -80 3
c-51 3 -85 9 -96 18 -8 8 -18 12 -22 9z"/>
<path d="M655 1450 c-14 -6 -4 -9 35 -8 42 0 49 2 30 8 -32 10 -41 10 -65 0z"/>
<path d="M4045 1450 c-14 -6 -5 -9 35 -9 40 0 49 3 35 9 -11 5 -27 9 -35 9 -8
0 -24 -4 -35 -9z"/>
</g>
</svg>
